<mxfile host="app.diagrams.net" modified="2023-10-14T17:04:25.524Z" agent="Mozilla/5.0 (X11; Linux x86_64) AppleWebKit/537.36 (KHTML, like Gecko) Chrome/117.0.0.0 Safari/537.36" etag="_POqVJl4FC96Gy3QVKaq" version="22.0.4" type="github">
  <diagram name="Page-1" id="TtZxPb3VXhutsBfabXN9">
    <mxGraphModel dx="1434" dy="855" grid="1" gridSize="10" guides="1" tooltips="1" connect="1" arrows="1" fold="1" page="1" pageScale="1" pageWidth="850" pageHeight="1100" math="0" shadow="0">
      <root>
        <mxCell id="0" />
        <mxCell id="1" parent="0" />
        <mxCell id="AXztS5M0_TfFSz8alALm-1" value="&lt;font style=&quot;font-size: 25px;&quot;&gt;Networking&lt;/font&gt;" style="swimlane;whiteSpace=wrap;html=1;startSize=40;" vertex="1" parent="1">
          <mxGeometry x="510" y="60" width="430" height="260" as="geometry" />
        </mxCell>
      </root>
    </mxGraphModel>
  </diagram>
</mxfile>
